<svg xmlns:xlink="http://www.w3.org/1999/xlink" xmlns="http://www.w3.org/2000/svg" class="s1yetyrx icon" width="32"  height="32" ><defs><symbol id="icon_Tighten" viewBox="0 0 32 32">
<path d="M26.494 22.792c1.145 0 2.074 0.941 2.074 2.102 0 1.103-0.838 2.007-1.903 2.095l-0.17 0.007h-20.988c-1.145 0-2.074-0.941-2.074-2.102 0-1.103 0.838-2.007 1.903-2.095l0.17-0.007h20.988zM26.494 14.384c1.145 0 2.074 0.941 2.074 2.102 0 1.103-0.838 2.007-1.903 2.095l-0.17 0.007h-20.988c-1.145 0-2.074-0.941-2.074-2.102 0-1.103 0.838-2.007 1.903-2.095l0.17-0.007h20.988zM26.494 5.004c1.145 0 2.074 0.941 2.074 2.102 0 1.103-0.838 2.007-1.903 2.095l-0.17 0.007h-20.988c-1.145 0-2.074-0.941-2.074-2.102 0-1.103 0.838-2.007 1.903-2.095l0.17-0.007h20.988z"></path>
</symbol></defs><use xlink:href="#icon_Tighten" fill="#FBFFFF"></use></svg>